<svg width="25" height="24" viewBox="0 0 25 24" fill="none" xmlns="http://www.w3.org/2000/svg">
<g clip-path="url(#clip0_775_114419)">
<path fill-rule="evenodd" clip-rule="evenodd" d="M3.87141 17.1074L2.62257 21.2945C2.55247 21.5284 2.60683 21.7823 2.76705 21.9669C2.92727 22.1521 3.17117 22.2422 3.41293 22.2065L8.69152 21.4233C9.88958 21.9318 11.2078 22.2144 12.5925 22.2144C18.1114 22.2144 22.5925 17.7333 22.5925 12.2144C22.5925 6.69544 18.1114 2.21436 12.5925 2.21436C7.07361 2.21436 2.59253 6.69544 2.59253 12.2144C2.59253 13.9911 3.05673 15.6605 3.87141 17.1074ZM5.33053 17.219C5.38847 17.0259 5.362 16.817 5.25686 16.6439C4.47365 15.3508 4.02304 13.8344 4.02304 12.2144C4.02304 7.48437 7.86254 3.64487 12.5925 3.64487C17.3218 3.64487 21.162 7.48437 21.162 12.2144C21.162 16.9436 17.3218 20.7838 12.5925 20.7838C11.3423 20.7838 10.1542 20.5156 9.08277 20.0335C8.95831 19.977 8.81955 19.9577 8.68437 19.9777L4.31415 20.6265L5.33053 17.219ZM12.6061 15.089C13.0009 15.089 13.3214 15.4094 13.3214 15.8042C13.3214 16.199 13.0009 16.5195 12.6061 16.5195C12.2113 16.5195 11.8909 16.199 11.8909 15.8042C11.8909 15.4094 12.2113 15.089 12.6061 15.089ZM11.8909 7.22115V13.6585C11.8909 14.0533 12.2113 14.3737 12.6061 14.3737C13.0009 14.3737 13.3214 14.0533 13.3214 13.6585V7.22115C13.3214 6.82633 13.0009 6.50589 12.6061 6.50589C12.2113 6.50589 11.8909 6.82633 11.8909 7.22115Z" fill="white" fill-opacity="0.968627"/>
</g>
<defs>
<clipPath id="clip0_775_114419">
<rect width="24" height="24" fill="white" transform="translate(0.0927734)"/>
</clipPath>
</defs>
</svg>
