<?xml version="1.0" encoding="utf-8"?>
<!-- Generator: Adobe Illustrator 23.0.1, SVG Export Plug-In . SVG Version: 6.00 Build 0)  -->
<svg version="1.1" id="Layer_1" xmlns="http://www.w3.org/2000/svg" xmlns:xlink="http://www.w3.org/1999/xlink" x="0px" y="0px"
	 viewBox="0 0 200 90" style="enable-background:new 0 0 200 90;" xml:space="preserve">
<style type="text/css">
	.st0{fill:#E74425;}
	.st1{enable-background:new    ;}
</style>
<g>
	<path class="st0" d="M25.7,22.8c0.1,0.9,0.2,1.8,0.3,2.8c0.2,1.7,0.4,3.5,0.6,5.2c0.2,1.6,0.4,3.1,0.5,4.7c0.1,0.6,0.1,1.3-0.1,1.9
		c-0.3,1.3-1.5,2.2-3,2.2c-0.7,0-1.5-0.1-2.2-0.2c-1.3-0.3-2-1.2-2-2.5c0-1.1,0.1-2.1,0.2-3.2c0.1-1.6,0.3-3.2,0.5-4.8
		c0.2-1.7,0.4-3.3,0.6-5c0-0.3,0.1-0.6,0.1-0.9c0-0.1,0.1-0.2,0.2-0.2C22.9,22.8,24.3,22.8,25.7,22.8C25.6,22.8,25.6,22.8,25.7,22.8
		z"/>
	<path class="st0" d="M17.1,22.7c0.5,0,1.1,0,1.6,0c0.2,0,0.3,0,0.3,0.3c-0.3,2.5-0.6,5.1-0.8,7.6c-0.2,2.2-0.5,4.4-0.7,6.7
		c-0.2,1.5-1.1,2.4-2.6,2.5c-0.6,0-1.2,0.1-1.7,0c-1.6-0.3-2.6-1.6-2.2-3.2c0.3-1.5,0.8-2.9,1.2-4.4c0.8-2.8,1.5-5.5,2.3-8.3
		c0.3-0.9,0.5-1.1,1.4-1.1C16.3,22.7,16.7,22.7,17.1,22.7L17.1,22.7z"/>
	<path class="st0" d="M30,22.7c0.5,0,1,0,1.5,0.1c0.6,0,0.8,0.2,1,0.7c0.3,0.9,0.5,1.9,0.8,2.8c0.8,2.9,1.6,5.8,2.4,8.7
		c0.2,0.7,0.4,1.5,0.4,2.2c0.1,1.1-0.6,1.9-1.7,2.2c-1.1,0.3-2.2,0.3-3.2,0c-0.9-0.3-1.3-0.9-1.5-1.8c-0.2-0.9-0.3-1.8-0.4-2.8
		c-0.2-2.1-0.5-4.2-0.7-6.2c-0.2-1.8-0.4-3.6-0.6-5.5c-0.1-0.6,0-0.6,0.5-0.6C29.1,22.7,29.5,22.7,30,22.7C30,22.7,30,22.7,30,22.7z
		"/>
	<path class="st0" d="M12.4,22.8c-0.6,2.1-1.1,4.1-1.6,6.1c-0.8,2.8-1.6,5.5-2.3,8.3c-0.6,2.5-3.3,3.2-4.9,2.2
		c-1.1-0.6-1.9-1.9-1.2-3.5c1.8-3.9,3.5-7.9,5.3-11.8c0.4-0.9,1.1-1.4,2.1-1.4c0.8,0,1.5,0,2.3,0C12.1,22.8,12.2,22.8,12.4,22.8z"/>
	<path class="st0" d="M34.6,22.8c1.1,0,2.1,0,3,0c0.8,0,1.4,0.6,1.7,1.3c0.8,1.7,1.6,3.4,2.4,5.2c1,2.2,2,4.4,2.9,6.7
		c0.7,1.7,0,3.2-1.8,3.6c-1.2,0.3-2.4,0.3-3.4-0.6c-0.5-0.5-0.8-1.2-1-1.8c-1.1-4-2.2-8-3.3-12C35,24.4,34.9,23.6,34.6,22.8z"/>
	<path class="st0" d="M41.6,43.1c0-0.7-0.2-1-0.8-1.2c-1.1-0.4-2.2-0.9-3.4-1.3c-0.2-0.1-0.4-0.1-0.6,0.1c-1.9,1.6-3.9,1.9-6.2,0.9
		c-0.9-0.4-1.7-0.9-2.5-1.3c-2.4,2.5-7,2.4-9.5-0.1c-0.5,0.4-0.9,0.8-1.3,1.1c-1.3,0.8-2.7,0.9-4.1,0.8c-1.3-0.1-2.4-0.5-3.3-1.4
		c-0.2-0.2-0.3-0.1-0.5,0c-1.1,0.5-2.1,0.9-3.2,1.4c-0.8,0.3-0.9,0.5-0.9,1.3c0,6.1,0,12.2,0,18.3c0,0.3,0,0.6,0,0.8
		c0.1,0.6,0.4,0.9,1,0.9c1.3,0,2.5,0,3.7,0c0,0,0.1,0,0.1,0v0h6.6V47c0-0.8,0.7-1.5,1.5-1.5h11.4c0.8,0,1.5,0.7,1.5,1.5v16.3h5.7v0
		c1,0,2.1,0,3.1,0c1.3,0,1.7-0.4,1.7-1.7C41.6,55.4,41.6,49.3,41.6,43.1z"/>
	<path class="st0" d="M26.4,46.8h-5c-0.1,0-0.1-0.1-0.1-0.1l0,0c0-0.1,0.1-0.1,0.1-0.1h5c0.1,0,0.1,0.1,0.1,0.1l0,0
		C26.5,46.8,26.5,46.8,26.4,46.8z"/>
</g>
<g>
	<g class="st1">
		<path d="M67.9,48.2c0,1.9-0.2,3.6-0.8,5c-0.5,1.4-1.2,2.5-2.2,3.4c-0.9,0.9-2.1,1.5-3.4,1.9s-3,0.6-4.8,0.6h-5
			c-0.4,0-0.7-0.1-0.9-0.3c-0.2-0.2-0.4-0.6-0.4-1V39.3c0-0.5,0.1-0.8,0.4-1c0.2-0.2,0.5-0.3,0.9-0.3h5.4c1.9,0,3.5,0.2,4.8,0.7
			c1.3,0.5,2.4,1.1,3.3,2c0.9,0.9,1.6,1.9,2,3.2C67.7,45,67.9,46.5,67.9,48.2z M63.5,48.3c0-1-0.1-1.9-0.4-2.8
			c-0.2-0.9-0.6-1.6-1.1-2.2c-0.5-0.6-1.2-1.1-2-1.5c-0.8-0.4-1.9-0.5-3.2-0.5h-2.2v14.3h2.2c1.2,0,2.2-0.2,3-0.5
			c0.8-0.3,1.5-0.8,2-1.4c0.5-0.6,0.9-1.4,1.2-2.3C63.3,50.6,63.5,49.5,63.5,48.3z"/>
		<path d="M75.6,39c0,0.8-0.2,1.4-0.5,1.7c-0.3,0.3-1,0.5-1.9,0.5s-1.5-0.2-1.9-0.5c-0.3-0.3-0.5-0.9-0.5-1.6c0-0.8,0.2-1.4,0.5-1.7
			s0.9-0.5,1.9-0.5c0.9,0,1.5,0.2,1.9,0.5S75.6,38.2,75.6,39z M75.2,58.4c0,0.1,0,0.2-0.1,0.3c-0.1,0.1-0.2,0.2-0.3,0.2
			S74.4,59,74.2,59c-0.3,0-0.6,0-1,0c-0.4,0-0.7,0-1,0c-0.3,0-0.5-0.1-0.6-0.1c-0.2,0-0.3-0.1-0.3-0.2c-0.1-0.1-0.1-0.2-0.1-0.3V44
			c0-0.1,0-0.2,0.1-0.3c0.1-0.1,0.2-0.2,0.3-0.2c0.2-0.1,0.4-0.1,0.6-0.1c0.3,0,0.6,0,1,0c0.4,0,0.7,0,1,0c0.3,0,0.5,0.1,0.6,0.1
			c0.2,0.1,0.3,0.1,0.3,0.2c0.1,0.1,0.1,0.2,0.1,0.3V58.4z"/>
		<path d="M92.4,44.9c0,0.5-0.1,0.9-0.2,1.2c-0.1,0.2-0.3,0.4-0.5,0.4h-1.7c0.2,0.3,0.4,0.6,0.5,0.9c0.1,0.3,0.2,0.7,0.2,1
			c0,0.9-0.1,1.6-0.4,2.3c-0.3,0.7-0.7,1.2-1.2,1.7c-0.5,0.5-1.2,0.8-1.9,1c-0.7,0.2-1.6,0.4-2.5,0.4c-0.5,0-0.9,0-1.3-0.2
			c-0.4-0.1-0.7-0.2-1-0.4c-0.1,0.1-0.2,0.3-0.4,0.5c-0.1,0.2-0.2,0.4-0.2,0.7c0,0.3,0.1,0.6,0.4,0.8c0.3,0.2,0.7,0.3,1.2,0.3
			l3.5,0.1c0.8,0,1.6,0.2,2.2,0.4c0.7,0.2,1.2,0.5,1.6,0.9c0.5,0.4,0.8,0.8,1,1.3c0.2,0.5,0.4,1.1,0.4,1.7c0,0.7-0.2,1.4-0.5,2
			S91,63,90.3,63.5c-0.6,0.5-1.4,0.8-2.4,1.1C87,64.8,85.9,65,84.7,65c-1.2,0-2.3-0.1-3.2-0.3s-1.6-0.5-2.1-0.8s-1-0.8-1.2-1.2
			c-0.2-0.5-0.4-1-0.4-1.6c0-0.4,0-0.7,0.1-1c0.1-0.3,0.2-0.6,0.4-0.9c0.2-0.3,0.4-0.6,0.7-0.9c0.3-0.3,0.6-0.5,0.9-0.8
			c-0.5-0.2-0.8-0.6-1.1-1c-0.2-0.4-0.4-0.9-0.4-1.4c0-0.6,0.2-1.2,0.5-1.7c0.3-0.5,0.7-1,1.1-1.4c-0.4-0.4-0.7-0.8-0.9-1.4
			c-0.2-0.5-0.3-1.2-0.3-2c0-0.9,0.2-1.6,0.5-2.3c0.3-0.7,0.7-1.2,1.2-1.7c0.5-0.5,1.2-0.8,1.9-1.1c0.7-0.2,1.5-0.4,2.4-0.4
			c0.5,0,0.9,0,1.3,0.1c0.4,0,0.8,0.1,1.2,0.2h4.6c0.2,0,0.3,0.1,0.5,0.4C92.3,44,92.4,44.4,92.4,44.9z M88.1,60
			c0-0.5-0.2-0.9-0.6-1.1c-0.4-0.3-0.9-0.4-1.6-0.4L83,58.3c-0.3,0.2-0.5,0.4-0.7,0.6c-0.2,0.2-0.3,0.4-0.4,0.5
			c-0.1,0.2-0.2,0.3-0.2,0.5c0,0.2,0,0.3,0,0.5c0,0.5,0.3,0.9,0.8,1.2c0.5,0.3,1.3,0.4,2.3,0.4c0.6,0,1.1-0.1,1.6-0.2
			c0.4-0.1,0.8-0.3,1-0.5c0.3-0.2,0.5-0.4,0.6-0.7C88.1,60.5,88.1,60.2,88.1,60z M87.2,48.4c0-0.8-0.2-1.4-0.7-1.8
			c-0.4-0.4-1.1-0.7-1.8-0.7c-0.4,0-0.7,0.1-1.1,0.2c-0.3,0.1-0.6,0.3-0.8,0.6c-0.2,0.2-0.4,0.5-0.5,0.8c-0.1,0.3-0.2,0.6-0.2,1
			c0,0.7,0.2,1.3,0.7,1.7c0.4,0.4,1,0.7,1.8,0.7c0.4,0,0.8-0.1,1.1-0.2c0.3-0.1,0.6-0.3,0.8-0.5c0.2-0.2,0.4-0.5,0.5-0.8
			C87.1,49,87.2,48.7,87.2,48.4z"/>
		<path d="M99.5,39c0,0.8-0.2,1.4-0.5,1.7c-0.3,0.3-1,0.5-1.9,0.5s-1.5-0.2-1.9-0.5c-0.3-0.3-0.5-0.9-0.5-1.6c0-0.8,0.2-1.4,0.5-1.7
			s0.9-0.5,1.9-0.5c0.9,0,1.5,0.2,1.9,0.5S99.5,38.2,99.5,39z M99.2,58.4c0,0.1,0,0.2-0.1,0.3c-0.1,0.1-0.2,0.2-0.3,0.2
			S98.4,59,98.2,59c-0.3,0-0.6,0-1,0c-0.4,0-0.7,0-1,0c-0.3,0-0.5-0.1-0.6-0.1c-0.2,0-0.3-0.1-0.3-0.2c-0.1-0.1-0.1-0.2-0.1-0.3V44
			c0-0.1,0-0.2,0.1-0.3c0.1-0.1,0.2-0.2,0.3-0.2c0.2-0.1,0.4-0.1,0.6-0.1c0.3,0,0.6,0,1,0c0.4,0,0.7,0,1,0c0.3,0,0.5,0.1,0.6,0.1
			c0.2,0.1,0.3,0.1,0.3,0.2s0.1,0.2,0.1,0.3V58.4z"/>
	</g>
	<g class="st1">
		<path d="M120.2,48.2c0,1.8-0.2,3.4-0.7,4.8c-0.5,1.4-1.1,2.5-2,3.4c-0.9,0.9-2,1.6-3.3,2c-1.3,0.5-2.8,0.7-4.6,0.7h-4.5
			c-0.2,0-0.5-0.1-0.7-0.2c-0.2-0.2-0.3-0.5-0.3-0.9V39.1c0-0.4,0.1-0.7,0.3-0.9c0.2-0.2,0.5-0.2,0.7-0.2h4.8c1.8,0,3.4,0.2,4.6,0.7
			c1.3,0.5,2.3,1.2,3.2,2c0.9,0.9,1.5,2,1.9,3.2C120,45.2,120.2,46.6,120.2,48.2z M117.3,48.3c0-1.1-0.1-2.2-0.4-3.2
			c-0.3-1-0.7-1.8-1.3-2.5c-0.6-0.7-1.4-1.3-2.3-1.7c-0.9-0.4-2.1-0.6-3.6-0.6h-2.8v16.4h2.9c1.3,0,2.5-0.2,3.4-0.5s1.7-0.9,2.3-1.5
			c0.6-0.7,1.1-1.6,1.4-2.6C117.1,50.9,117.3,49.7,117.3,48.3z"/>
		<path d="M137.1,51.1c0,1.2-0.2,2.3-0.5,3.3s-0.8,1.9-1.4,2.6c-0.6,0.7-1.4,1.3-2.3,1.7c-0.9,0.4-2,0.6-3.2,0.6
			c-1.2,0-2.3-0.2-3.1-0.5c-0.9-0.4-1.6-0.9-2.2-1.6c-0.6-0.7-1-1.5-1.3-2.5c-0.3-1-0.5-2.1-0.5-3.3c0-1.2,0.2-2.3,0.5-3.3
			c0.3-1,0.8-1.9,1.4-2.6c0.6-0.7,1.4-1.3,2.3-1.7c0.9-0.4,2-0.6,3.3-0.6c1.2,0,2.3,0.2,3.1,0.5c0.9,0.4,1.6,0.9,2.2,1.6
			c0.6,0.7,1,1.5,1.3,2.5C136.9,48.8,137.1,49.9,137.1,51.1z M134.3,51.3c0-0.8-0.1-1.5-0.2-2.2c-0.2-0.7-0.4-1.3-0.7-1.9
			c-0.3-0.5-0.8-0.9-1.4-1.3c-0.6-0.3-1.3-0.5-2.2-0.5c-0.8,0-1.5,0.1-2.1,0.4c-0.6,0.3-1.1,0.7-1.4,1.2c-0.4,0.5-0.7,1.1-0.8,1.8
			c-0.2,0.7-0.3,1.5-0.3,2.3c0,0.8,0.1,1.6,0.2,2.3c0.2,0.7,0.4,1.3,0.7,1.9c0.3,0.5,0.8,0.9,1.4,1.3c0.6,0.3,1.3,0.5,2.2,0.5
			c0.8,0,1.5-0.1,2.1-0.4c0.6-0.3,1.1-0.7,1.4-1.2c0.4-0.5,0.7-1.1,0.8-1.8C134.2,52.9,134.3,52.1,134.3,51.3z"/>
		<path d="M152.3,58.6c0,0.1,0,0.2-0.1,0.2c0,0.1-0.1,0.1-0.2,0.2c-0.1,0-0.2,0.1-0.4,0.1c-0.2,0-0.4,0-0.7,0c-0.3,0-0.5,0-0.7,0
			c-0.2,0-0.4,0-0.5-0.1c-0.1,0-0.2-0.1-0.3-0.2s-0.2-0.2-0.2-0.2l-6.2-8.1v8.1c0,0.1,0,0.2-0.1,0.2c0,0.1-0.1,0.1-0.2,0.2
			c-0.1,0-0.2,0.1-0.4,0.1c-0.2,0-0.4,0-0.7,0c-0.3,0-0.5,0-0.7,0c-0.2,0-0.3,0-0.4-0.1c-0.1,0-0.2-0.1-0.2-0.2c0-0.1,0-0.1,0-0.2
			V36.9c0-0.1,0-0.2,0-0.2c0-0.1,0.1-0.1,0.2-0.2c0.1,0,0.2-0.1,0.4-0.1c0.2,0,0.4,0,0.7,0c0.3,0,0.5,0,0.7,0c0.2,0,0.3,0,0.4,0.1
			c0.1,0,0.2,0.1,0.2,0.2c0,0.1,0.1,0.1,0.1,0.2v13.2l5.5-6.1c0.1-0.1,0.2-0.2,0.3-0.3c0.1-0.1,0.2-0.1,0.4-0.2
			c0.1,0,0.3-0.1,0.5-0.1c0.2,0,0.4,0,0.7,0c0.3,0,0.5,0,0.7,0c0.2,0,0.3,0,0.5,0.1c0.1,0,0.2,0.1,0.2,0.2c0,0.1,0.1,0.1,0.1,0.2
			c0,0.1,0,0.3-0.1,0.4s-0.2,0.3-0.4,0.5l-5.3,5.3l6,7.7c0.1,0.2,0.2,0.3,0.3,0.5C152.3,58.4,152.3,58.5,152.3,58.6z"/>
		<path d="M165.2,58.6c0,0.1,0,0.2-0.1,0.3s-0.2,0.1-0.4,0.2c-0.2,0-0.4,0-0.7,0c-0.3,0-0.5,0-0.7,0c-0.2,0-0.3-0.1-0.4-0.2
			c-0.1-0.1-0.1-0.2-0.1-0.3v-1.5c-0.6,0.7-1.4,1.2-2.1,1.6c-0.8,0.4-1.6,0.6-2.5,0.6c-0.8,0-1.5-0.1-2.1-0.3
			c-0.6-0.2-1.2-0.5-1.6-0.9c-0.5-0.4-0.8-0.9-1-1.4c-0.2-0.6-0.4-1.2-0.4-1.9c0-0.8,0.2-1.5,0.5-2.1c0.3-0.6,0.8-1.1,1.4-1.5
			c0.6-0.4,1.4-0.7,2.3-0.9c0.9-0.2,1.9-0.3,3.1-0.3h2v-1.1c0-0.6-0.1-1.1-0.2-1.5s-0.3-0.8-0.6-1.1c-0.3-0.3-0.6-0.5-1-0.7
			c-0.4-0.1-0.9-0.2-1.6-0.2c-0.7,0-1.3,0.1-1.8,0.2c-0.5,0.2-1,0.3-1.4,0.5c-0.4,0.2-0.7,0.4-1,0.5c-0.3,0.2-0.5,0.2-0.6,0.2
			c-0.1,0-0.2,0-0.2-0.1c-0.1,0-0.1-0.1-0.2-0.2c0-0.1-0.1-0.2-0.1-0.3c0-0.1,0-0.3,0-0.5c0-0.3,0-0.5,0-0.7c0-0.2,0.1-0.3,0.3-0.5
			c0.2-0.1,0.4-0.3,0.8-0.5c0.4-0.2,0.8-0.4,1.2-0.5c0.5-0.2,1-0.3,1.5-0.4c0.6-0.1,1.1-0.2,1.7-0.2c1.1,0,2,0.1,2.7,0.4
			c0.7,0.2,1.3,0.6,1.8,1.1c0.5,0.5,0.8,1,1,1.7s0.3,1.5,0.3,2.4L165.2,58.6L165.2,58.6z M162.5,51.9h-2.3c-0.7,0-1.4,0.1-1.9,0.2
			c-0.5,0.1-1,0.3-1.4,0.6c-0.4,0.2-0.6,0.5-0.8,0.9c-0.2,0.3-0.2,0.7-0.2,1.2c0,0.8,0.2,1.4,0.7,1.8c0.5,0.5,1.2,0.7,2,0.7
			c0.7,0,1.4-0.2,2-0.5c0.6-0.4,1.2-0.9,1.9-1.6L162.5,51.9L162.5,51.9z"/>
		<path d="M180.4,58.6c0,0.1,0,0.2-0.1,0.3c-0.1,0.1-0.2,0.1-0.4,0.2c-0.2,0-0.4,0-0.7,0c-0.3,0-0.5,0-0.7,0c-0.2,0-0.3-0.1-0.4-0.2
			c-0.1-0.1-0.1-0.2-0.1-0.3v-1.5c-0.6,0.7-1.4,1.2-2.1,1.6c-0.8,0.4-1.6,0.6-2.5,0.6c-0.8,0-1.5-0.1-2.1-0.3
			c-0.6-0.2-1.2-0.5-1.6-0.9c-0.5-0.4-0.8-0.9-1-1.4c-0.2-0.6-0.4-1.2-0.4-1.9c0-0.8,0.2-1.5,0.5-2.1c0.3-0.6,0.8-1.1,1.4-1.5
			c0.6-0.4,1.4-0.7,2.3-0.9c0.9-0.2,1.9-0.3,3.1-0.3h2v-1.1c0-0.6-0.1-1.1-0.2-1.5c-0.1-0.4-0.3-0.8-0.6-1.1c-0.3-0.3-0.6-0.5-1-0.7
			c-0.4-0.1-0.9-0.2-1.6-0.2c-0.7,0-1.3,0.1-1.8,0.2s-1,0.3-1.4,0.5c-0.4,0.2-0.7,0.4-1,0.5c-0.3,0.2-0.5,0.2-0.6,0.2
			c-0.1,0-0.2,0-0.2-0.1c-0.1,0-0.1-0.1-0.2-0.2c0-0.1-0.1-0.2-0.1-0.3c0-0.1,0-0.3,0-0.5c0-0.3,0-0.5,0-0.7c0-0.2,0.1-0.3,0.3-0.5
			c0.2-0.1,0.4-0.3,0.8-0.5c0.4-0.2,0.8-0.4,1.2-0.5c0.5-0.2,1-0.3,1.5-0.4c0.6-0.1,1.1-0.2,1.7-0.2c1.1,0,2,0.1,2.7,0.4
			c0.7,0.2,1.3,0.6,1.8,1.1c0.5,0.5,0.8,1,1,1.7c0.2,0.7,0.3,1.5,0.3,2.4L180.4,58.6L180.4,58.6z M177.7,51.9h-2.3
			c-0.7,0-1.4,0.1-1.9,0.2c-0.5,0.1-1,0.3-1.4,0.6c-0.4,0.2-0.6,0.5-0.8,0.9c-0.2,0.3-0.2,0.7-0.2,1.2c0,0.8,0.2,1.4,0.7,1.8
			c0.5,0.5,1.2,0.7,2,0.7c0.7,0,1.4-0.2,2-0.5c0.6-0.4,1.2-0.9,1.9-1.6L177.7,51.9L177.7,51.9z"/>
		<path d="M197.2,58.6c0,0.1,0,0.2-0.1,0.2c0,0.1-0.1,0.1-0.2,0.2c-0.1,0-0.2,0.1-0.4,0.1c-0.2,0-0.4,0-0.7,0s-0.5,0-0.7,0
			c-0.2,0-0.3,0-0.4-0.1c-0.1,0-0.2-0.1-0.2-0.2c0-0.1-0.1-0.1-0.1-0.2V50c0-0.8-0.1-1.5-0.2-2c-0.1-0.5-0.3-0.9-0.6-1.3
			c-0.2-0.4-0.6-0.7-1-0.9c-0.4-0.2-0.9-0.3-1.4-0.3c-0.7,0-1.3,0.2-2,0.7c-0.7,0.5-1.4,1.2-2.1,2.1v10.2c0,0.1,0,0.2-0.1,0.2
			c0,0.1-0.1,0.1-0.2,0.2c-0.1,0-0.2,0.1-0.4,0.1c-0.2,0-0.4,0-0.7,0c-0.3,0-0.5,0-0.7,0c-0.2,0-0.3,0-0.4-0.1
			c-0.1,0-0.2-0.1-0.2-0.2c0-0.1,0-0.1,0-0.2V44c0-0.1,0-0.2,0-0.2c0-0.1,0.1-0.1,0.2-0.2c0.1,0,0.2-0.1,0.4-0.1c0.2,0,0.4,0,0.6,0
			c0.2,0,0.4,0,0.6,0c0.2,0,0.3,0,0.4,0.1c0.1,0,0.2,0.1,0.2,0.2c0,0.1,0,0.1,0,0.2v1.9c0.8-0.9,1.6-1.6,2.5-2
			c0.8-0.4,1.6-0.7,2.5-0.7c1,0,1.8,0.2,2.5,0.5c0.7,0.3,1.2,0.8,1.6,1.3c0.4,0.6,0.7,1.2,0.9,1.9c0.2,0.7,0.3,1.6,0.3,2.7
			L197.2,58.6L197.2,58.6z"/>
	</g>
</g>
</svg>
