<svg width="127" height="127" viewBox="0 0 127 127" fill="none" xmlns="http://www.w3.org/2000/svg">
<path d="M74.6582 63.5C74.6582 69.6644 69.6604 74.6621 63.4961 74.6621C57.3317 74.6621 52.334 69.6644 52.334 63.5C52.334 57.3356 57.3317 52.3379 63.4961 52.3379C69.6604 52.3379 74.6582 57.3356 74.6582 63.5Z" fill="black"/>
<path d="M82.3516 29.7656H44.6484C36.4416 29.7656 29.7656 36.4416 29.7656 44.6484V82.3516C29.7656 90.5584 36.4416 97.2344 44.6484 97.2344H82.3516C90.5584 97.2344 97.2344 90.5584 97.2344 82.3516V44.6484C97.2344 36.4416 90.5584 29.7656 82.3516 29.7656ZM63.5 82.1035C53.2419 82.1035 44.8965 73.7581 44.8965 63.5C44.8965 53.2419 53.2419 44.8965 63.5 44.8965C73.7581 44.8965 82.1035 53.2419 82.1035 63.5C82.1035 73.7581 73.7581 82.1035 63.5 82.1035ZM84.832 45.8887C82.7769 45.8887 81.1113 44.2231 81.1113 42.168C81.1113 40.1129 82.7769 38.4473 84.832 38.4473C86.8871 38.4473 88.5527 40.1129 88.5527 42.168C88.5527 44.2231 86.8871 45.8887 84.832 45.8887Z" fill="black"/>
<path d="M93.5137 0H33.4863C15.0223 0 0 15.0223 0 33.4863V93.5137C0 111.978 15.0223 127 33.4863 127H93.5137C111.978 127 127 111.978 127 93.5137V33.4863C127 15.0223 111.978 0 93.5137 0ZM104.676 82.3516C104.676 94.6609 94.6609 104.676 82.3516 104.676H44.6484C32.3391 104.676 22.3242 94.6609 22.3242 82.3516V44.6484C22.3242 32.3391 32.3391 22.3242 44.6484 22.3242H82.3516C94.6609 22.3242 104.676 32.3391 104.676 44.6484V82.3516Z" fill="black"/>
</svg>
