<svg width="23" height="22" viewBox="0 0 23 22" fill="none" xmlns="http://www.w3.org/2000/svg">
<g clip-path="url(#clip0_775_114411)">
<path d="M22.546 8.44028C22.546 8.32587 22.546 8.21097 22.5401 8.09656C22.4704 6.68142 21.2674 5.51769 19.8596 5.50296C19.4471 5.49854 19.1329 5.77351 19.1103 6.15897C19.0887 6.5292 19.3656 6.8302 19.7697 6.87538C20.714 6.98144 21.1687 7.48572 21.1687 8.43341C21.1692 12.1397 21.1687 15.8459 21.1687 19.5527C21.1687 19.6386 21.1687 19.7251 21.1687 19.8566C21.0636 19.7825 20.9968 19.7408 20.9354 19.6922C20.3025 19.1869 19.6652 18.6865 19.0396 18.1724C18.7862 17.9637 18.5157 17.87 18.1857 17.8704C15.1094 17.8768 12.0331 17.8749 8.95636 17.8739C7.97627 17.8734 7.42386 17.3161 7.42141 16.3311C7.42092 16.1509 7.42779 15.9707 7.41748 15.7914C7.39686 15.4271 7.13072 15.1556 6.78013 15.129C6.44132 15.1035 6.09662 15.3485 6.06568 15.7035C6.00234 16.4337 6.00479 17.1653 6.39074 17.8277C6.9456 18.7798 7.78428 19.2492 8.88221 19.2502C11.8848 19.2527 14.888 19.2532 17.8906 19.2473C18.0919 19.2468 18.2461 19.2998 18.4013 19.427C19.0406 19.9504 19.6887 20.4626 20.3339 20.9791C20.6786 21.2551 21.0209 21.535 21.37 21.8055C21.6116 21.9926 21.8787 22.0722 22.1704 21.9214C22.4493 21.7771 22.5494 21.5301 22.5445 21.2291C22.544 21.1883 22.5445 21.1471 22.5445 21.1063C22.5465 16.884 22.5465 12.6621 22.546 8.44028Z" fill="white"/>
<path d="M15.5312 13.7512C17.2459 13.7507 18.4199 12.5816 18.4214 10.8733C18.4234 8.2139 18.4224 5.5545 18.4209 2.8951C18.4209 2.73208 18.4209 2.56611 18.3959 2.40554C18.1685 0.94474 17.0623 0.00245987 15.5671 0.00147782C11.5407 -0.000977313 7.51474 0.000495767 3.48881 0.000986793C1.71964 0.000986793 0.54707 1.1711 0.546579 2.93634C0.545597 5.12927 0.546579 7.32219 0.546579 9.51512C0.546088 11.7738 0.546088 14.0321 0.547561 16.2903C0.547561 16.4121 0.548543 16.5383 0.577023 16.6556C0.687013 17.1098 1.14465 17.3146 1.55711 17.0966C1.66416 17.0401 1.76187 16.962 1.85566 16.884C3.04492 15.8955 4.23468 14.9076 5.41854 13.9123C5.56045 13.7929 5.70187 13.7483 5.88355 13.7487C9.09928 13.7527 12.3155 13.7522 15.5312 13.7512ZM4.83717 4.38094C4.99184 4.18797 5.20642 4.12365 5.44751 4.12463C6.0117 4.12659 6.57589 4.12512 7.14008 4.12512C9.22498 4.12512 11.3099 4.12512 13.3948 4.12512C13.4846 4.12512 13.5755 4.12119 13.6644 4.13101C14.0449 4.17275 14.3105 4.47817 14.2943 4.8484C14.2781 5.21127 14.0046 5.48281 13.6241 5.49852C13.3712 5.50883 13.1173 5.50196 12.864 5.50196C11.7439 5.50196 10.6239 5.50196 9.50339 5.50196C8.13785 5.50196 6.7723 5.50196 5.40725 5.50147C5.10232 5.50147 4.8681 5.37674 4.73798 5.09293C4.61964 4.83711 4.66531 4.59552 4.83717 4.38094ZM8.09955 8.25171C7.20048 8.25171 6.30141 8.2576 5.40234 8.24974C4.82833 8.24483 4.49836 7.70372 4.76941 7.22791C4.90248 6.99419 5.11509 6.8788 5.3773 6.8783C7.19999 6.87438 9.02268 6.87241 10.8454 6.87879C11.2593 6.88027 11.5505 7.18912 11.5446 7.57802C11.5387 7.96838 11.247 8.24778 10.8208 8.24974C9.91389 8.25514 9.00697 8.25171 8.09955 8.25171Z" fill="white"/>
</g>
<defs>
<clipPath id="clip0_775_114411">
<rect width="22.0004" height="22" fill="white" transform="translate(0.546143 2.28882e-05)"/>
</clipPath>
</defs>
</svg>
