<svg width="114" height="14" viewBox="0 0 114 14" fill="none" xmlns="http://www.w3.org/2000/svg">
<path d="M0.304582 12.6235C0.268194 12.4537 0.25 12.1262 0.25 11.641C0.25 11.1559 0.34097 10.6404 0.522911 10.0945H0.686657C0.674528 10.228 0.668463 10.3614 0.668463 10.4948C0.668463 11.2347 0.892857 11.8533 1.34164 12.3506C1.79043 12.8358 2.38477 13.0784 3.12466 13.0784C3.88881 13.0784 4.51347 12.8479 4.99865 12.387C5.49595 11.9261 5.7446 11.3499 5.7446 10.6586C5.7446 9.95505 5.50808 9.38497 5.03504 8.94831L1.54178 5.70976C0.886792 5.1033 0.559299 4.36947 0.559299 3.50828C0.559299 2.6471 0.844339 1.91327 1.41442 1.3068C1.99663 0.688206 2.77897 0.378906 3.76145 0.378906C4.22237 0.378906 4.74393 0.439553 5.32614 0.560847H6.03571V2.79872H5.87196C5.87196 2.22864 5.67183 1.77378 5.27156 1.43416C4.88342 1.09454 4.38005 0.924729 3.76145 0.924729C3.14285 0.924729 2.62129 1.13093 2.19676 1.54333C1.78436 1.95572 1.57817 2.47122 1.57817 3.08982C1.57817 3.70842 1.82075 4.24211 2.30593 4.6909L5.89016 8.00222C6.49662 8.56017 6.79986 9.32432 6.79986 10.2947C6.79986 11.265 6.49056 12.0656 5.87196 12.6963C5.25337 13.3149 4.42857 13.6242 3.39757 13.6242C2.86388 13.6242 2.2938 13.5393 1.68733 13.3695C1.09299 13.2118 0.632075 12.9631 0.304582 12.6235Z" fill="#5285D5"/>
<path d="M16.9268 13.1875C17.2058 13.1875 17.4484 13.0966 17.6546 12.9146C17.8608 12.7205 17.97 12.4901 17.9821 12.2232V8.25694H11.2685V12.2232C11.2806 12.4901 11.3898 12.7205 11.596 12.9146C11.8022 13.0966 12.0448 13.1875 12.3237 13.1875H12.5421V13.3695H8.83049V13.1875H9.04881C9.33992 13.1875 9.58251 13.0905 9.77658 12.8964C9.98278 12.7023 10.0919 12.4719 10.1041 12.205V3.61745C10.0919 3.3506 9.98278 3.12014 9.77658 2.92608C9.57038 2.732 9.32779 2.63497 9.04881 2.63497H8.83049V2.45303H12.5421V2.63497H12.3237C12.0448 2.63497 11.8022 2.732 11.596 2.92608C11.3898 3.10802 11.2806 3.33241 11.2685 3.59925V7.71111H17.9821V3.61745C17.9821 3.3506 17.9033 3.1444 17.7456 2.99885C17.4909 2.75626 17.2179 2.63497 16.9268 2.63497H16.7085V2.45303H20.4201V2.63497H20.2018C19.9228 2.63497 19.6802 2.72594 19.474 2.90788C19.2678 3.08982 19.1586 3.31422 19.1465 3.58106V12.2232C19.1586 12.4901 19.2375 12.6902 19.383 12.8236C19.6499 13.0662 19.9228 13.1875 20.2018 13.1875H20.4201V13.3695H16.7085V13.1875H16.9268Z" fill="#5285D5"/>
<path d="M33.5033 2.63497H33.2304C32.9029 2.63497 32.6543 2.76233 32.4845 3.01705C32.4117 3.12621 32.3692 3.25357 32.3571 3.39912V9.53052C32.3571 10.792 31.9508 11.7926 31.1381 12.5325C30.3376 13.2603 29.2338 13.6242 27.8268 13.6242C26.4198 13.6242 25.3099 13.2603 24.4973 12.5325C23.6846 11.8048 23.2783 10.8102 23.2783 9.54871V3.41731C23.2783 3.19899 23.1934 3.01705 23.0236 2.87149C22.8537 2.71381 22.6475 2.63497 22.405 2.63497H22.132V2.45303H25.5889V2.63497H25.316C25.0734 2.63497 24.8672 2.71381 24.6974 2.87149C24.5276 3.01705 24.4427 3.19899 24.4427 3.41731V9.33038C24.4427 10.5069 24.7399 11.4348 25.3342 12.1141C25.9407 12.7933 26.7897 13.1329 27.8814 13.1329C28.9851 13.1329 29.8645 12.8115 30.5195 12.1687C31.1866 11.5258 31.5202 10.6464 31.5202 9.53052V3.41731C31.508 3.18686 31.4171 2.99885 31.2473 2.8533C31.0896 2.70775 30.8894 2.63497 30.6469 2.63497H30.374V2.45303H33.5033V2.63497Z" fill="#5285D5"/>
<path d="M40.0022 2.98066V12.2232C40.0143 12.5993 40.1962 12.8782 40.548 13.0602C40.7057 13.1451 40.8815 13.1875 41.0756 13.1875H41.2757V13.3695H37.5278V13.1875H37.7461C38.0372 13.1875 38.2859 13.0905 38.4921 12.8964C38.6983 12.7023 38.8074 12.4719 38.8195 12.205V2.98066H35.5264C35.2474 2.98066 35.0231 3.07163 34.8532 3.25357C34.6956 3.43551 34.6167 3.65384 34.6167 3.90855V4.19966H34.4166V2.14373C34.6592 2.24077 34.9988 2.31354 35.4355 2.36206C35.8842 2.41058 36.2178 2.43484 36.4361 2.43484H42.3674C43.2407 2.43484 43.9199 2.3378 44.4051 2.14373V4.19966H44.205V3.90855C44.205 3.65384 44.1201 3.43551 43.9503 3.25357C43.7805 3.07163 43.5621 2.98066 43.2953 2.98066H40.0022Z" fill="#5285D5"/>
<path d="M50.7871 2.98066V12.2232C50.7992 12.5993 50.9812 12.8782 51.3329 13.0602C51.4906 13.1451 51.6665 13.1875 51.8606 13.1875H52.0607V13.3695H48.3127V13.1875H48.531C48.8222 13.1875 49.0708 13.0905 49.277 12.8964C49.4832 12.7023 49.5924 12.4719 49.6045 12.205V2.98066H46.3114C46.0324 2.98066 45.808 3.07163 45.6382 3.25357C45.4805 3.43551 45.4017 3.65384 45.4017 3.90855V4.19966H45.2015V2.14373C45.4441 2.24077 45.7837 2.31354 46.2204 2.36206C46.6692 2.41058 47.0027 2.43484 47.2211 2.43484H53.1523C54.0257 2.43484 54.7049 2.3378 55.1901 2.14373V4.19966H54.9899V3.90855C54.9899 3.65384 54.905 3.43551 54.7352 3.25357C54.5654 3.07163 54.3471 2.98066 54.0802 2.98066H50.7871Z" fill="#5285D5"/>
<path d="M56.7024 13.1875C56.9936 13.1875 57.2361 13.0966 57.4302 12.9146C57.6364 12.7205 57.7456 12.4901 57.7577 12.2232V3.61745C57.7456 3.3506 57.6304 3.12014 57.412 2.92608C57.2058 2.732 56.9572 2.63497 56.6661 2.63497H56.4477V2.45303H60.2139V2.63497H59.9956C59.7045 2.63497 59.4497 2.732 59.2314 2.92608C59.0252 3.12014 58.9221 3.3506 58.9221 3.61745V12.8054H61.7604C62.3184 12.8054 62.7914 12.7084 63.1795 12.5143C63.5677 12.3203 63.8588 12.0898 64.0528 11.823C64.259 11.5561 64.4592 11.2044 64.6533 10.7677H64.8352L63.8345 13.3695H56.4477V13.1875H56.7024Z" fill="#5285D5"/>
<path d="M66.0127 13.1875C66.3038 13.1875 66.5464 13.0966 66.7404 12.9146C66.9466 12.7205 67.0558 12.4901 67.0679 12.2232V3.58106C67.0679 3.31422 66.9648 3.08982 66.7586 2.90788C66.5524 2.72594 66.3038 2.63497 66.0127 2.63497H65.758V2.45303H71.0706C71.5679 2.45303 72.0046 2.41664 72.3806 2.34386C72.7566 2.27109 72.9992 2.21044 73.1084 2.16192V4.23605L72.9082 4.21785V3.94494C72.9082 3.69023 72.8233 3.4719 72.6535 3.28996C72.4837 3.10802 72.2654 3.01705 71.9985 3.01705H68.2142V7.63834H71.3254C71.5679 7.63834 71.7499 7.56556 71.8712 7.42001C72.0046 7.27446 72.0713 7.09251 72.0713 6.87419V6.63766H72.2714V9.18483H72.0713V8.94831C72.0713 8.60869 71.9439 8.37823 71.6892 8.25694C71.5922 8.22055 71.4891 8.19629 71.3799 8.18416H68.2142V12.8054H71.0706C71.6286 12.8054 72.0956 12.7084 72.4716 12.5143C72.8597 12.3203 73.1508 12.0898 73.3449 11.823C73.5511 11.5561 73.7573 11.2044 73.9635 10.7677H74.1454L73.1448 13.3695H65.758V13.1875H66.0127Z" fill="#5285D5"/>
<path d="M88.8262 4.14508C88.8262 4.67877 88.717 5.17607 88.4987 5.63699C88.0984 6.49817 87.3949 7.09858 86.3882 7.4382C86.0364 7.5595 85.7332 7.62014 85.4785 7.62014C84.7265 7.62014 84.0775 7.48065 83.5317 7.20168V7.01974C84.4172 7.21381 85.2359 7.11677 85.9879 6.72863C86.655 6.38901 87.1099 5.83106 87.3525 5.05478C87.4252 4.81219 87.4616 4.58173 87.4616 4.36341C87.4616 4.14508 87.4616 4.01165 87.4616 3.96314C87.4374 3.11408 87.213 2.4409 86.7884 1.9436C86.3639 1.43416 85.7696 1.17945 85.0054 1.17945H82.9131V12.0413C82.9252 12.3567 83.0405 12.6296 83.2588 12.86C83.4893 13.0784 83.7622 13.1875 84.0775 13.1875H84.3141V13.3695H80.3296V13.1875H80.5661C80.8814 13.1875 81.1483 13.0784 81.3666 12.86C81.5971 12.6296 81.7184 12.3567 81.7305 12.0413V1.87082C81.6941 1.56758 81.5668 1.31893 81.3484 1.12486C81.1301 0.918663 80.8693 0.815563 80.5661 0.815563H80.3477L80.3296 0.633623H85.0782C86.2426 0.633623 87.1584 0.948987 87.8255 1.57971C88.4926 2.19831 88.8262 3.05343 88.8262 4.14508Z" fill="#5285D5"/>
<path d="M93.9639 3.01705H92.9996V12.205C93.0117 12.5811 93.1815 12.8661 93.509 13.0602C93.6667 13.1451 93.8426 13.1875 94.0367 13.1875H94.2732L94.2914 13.3695H90.5616V13.1875H90.8163C91.0953 13.1875 91.3318 13.0966 91.5259 12.9146C91.7321 12.7205 91.8352 12.4901 91.8352 12.2232V3.58106C91.8352 3.31422 91.7321 3.08982 91.5259 2.90788C91.3318 2.72594 91.0953 2.63497 90.8163 2.63497H90.5616V2.45303H95.1283C96.2684 2.45303 97.166 2.71381 97.821 3.23537C98.4881 3.75694 98.8217 4.44225 98.8217 5.2913C98.8217 6.14036 98.5548 6.84993 98.0211 7.42001C97.4875 7.99009 96.8082 8.31758 95.9834 8.40249C96.3716 8.5723 96.8385 9.04534 97.3844 9.82162C97.3722 9.82162 97.5784 10.0885 98.003 10.6222C98.4396 11.1559 98.7853 11.5743 99.04 11.8776C99.3069 12.1687 99.5252 12.3931 99.695 12.5507C100.144 12.9753 100.473 13.1875 101.055 13.1875V13.3695H100.677C99.7193 13.3695 98.9672 13.1815 98.4214 12.8054C98.009 12.5265 97.633 12.1808 97.2934 11.7684C97.2206 11.6714 96.9113 11.2468 96.3655 10.4948C95.8318 9.73065 95.5468 9.32432 95.5104 9.2758C94.8554 8.46313 94.2429 8.0568 93.6728 8.0568V7.87486C95.0919 7.87486 95.947 7.80208 96.2381 7.65653C96.6384 7.45033 96.9113 7.232 97.0569 7.00154C97.3601 6.51637 97.5117 5.98268 97.5117 5.40047C97.5117 4.66057 97.2934 4.0905 96.8567 3.69023C96.4201 3.28996 95.8318 3.07163 95.0919 3.03524C94.7644 3.02311 94.3884 3.01705 93.9639 3.01705Z" fill="#5285D5"/>
<path d="M104.525 2.7512C105.459 2.26602 106.484 2.02344 107.6 2.02344C108.728 2.02344 109.759 2.26602 110.693 2.7512C111.627 3.22424 112.367 3.89742 112.913 4.77074C113.471 5.64405 113.75 6.6326 113.75 7.73637C113.75 8.84014 113.471 9.82869 112.913 10.702C112.367 11.5753 111.627 12.2546 110.693 12.7397C109.759 13.2128 108.801 13.4493 107.818 13.4493C106.836 13.4493 105.969 13.3098 105.217 13.0308C104.465 12.7519 103.81 12.3637 103.252 11.8664C102.706 11.3691 102.269 10.7626 101.942 10.047C101.626 9.33138 101.469 8.49446 101.469 7.53624C101.469 6.56589 101.742 5.64405 102.287 4.77074C102.845 3.89742 103.591 3.22424 104.525 2.7512ZM104.18 11.4662C105.102 12.4244 106.242 12.9035 107.6 12.9035C108.959 12.9035 110.099 12.4244 111.021 11.4662C111.942 10.4958 112.403 9.25254 112.403 7.73637C112.403 6.2202 111.942 4.983 111.021 4.02478C110.099 3.05443 108.959 2.56926 107.6 2.56926C106.242 2.56926 105.102 3.05443 104.18 4.02478C103.27 4.983 102.815 6.2202 102.815 7.73637C102.815 9.25254 103.27 10.4958 104.18 11.4662Z" fill="#5285D5"/>
<path d="M111.228 4.38989L110.676 4.25547C110.544 4.22325 110.407 4.22009 110.275 4.24624C110.142 4.27239 110.017 4.32717 109.909 4.4065L108.856 5.17786C108.776 5.06776 108.656 4.99063 108.52 4.96165C108.385 4.93268 108.243 4.95395 108.122 5.02129L108.074 5.04832C108.069 5.05098 108.065 5.0545 108.062 5.0587C108.058 5.0629 108.056 5.06769 108.055 5.07279C108.053 5.0779 108.053 5.08323 108.054 5.08846C108.054 5.0937 108.056 5.09875 108.059 5.10332L108.333 5.56068L108.244 5.62576C108.236 5.63169 108.231 5.64027 108.229 5.6499C108.227 5.65953 108.228 5.66953 108.233 5.67803L108.311 5.80679C108.304 5.80284 108.296 5.799 108.289 5.79538C108.26 5.78067 108.229 5.76909 108.196 5.76085C108.193 5.75992 108.189 5.75905 108.185 5.75816C108.062 5.72908 108.01 5.79464 107.901 5.85638C107.791 5.91812 107.667 6.00062 107.632 6.11877L107.464 6.38407C107.462 6.3892 107.462 6.39456 107.462 6.39985C107.463 6.40513 107.465 6.41023 107.468 6.41485C107.47 6.41947 107.474 6.42352 107.478 6.42676C107.483 6.43001 107.488 6.43238 107.493 6.43375L107.493 6.43387L107.845 6.47737C107.969 6.50644 108.13 6.53571 108.24 6.47403C108.35 6.41235 108.486 6.43632 108.521 6.31824C108.523 6.31135 108.525 6.30449 108.527 6.2973C108.534 6.26982 108.538 6.24179 108.539 6.21357C108.54 6.20535 108.54 6.19716 108.54 6.18899L108.617 6.31778C108.622 6.32627 108.63 6.33267 108.64 6.33577C108.649 6.33887 108.66 6.33844 108.669 6.33458L108.772 6.29217L109.046 6.74953C109.049 6.7541 109.052 6.7581 109.057 6.76131C109.061 6.76451 109.066 6.76686 109.071 6.76822C109.076 6.76958 109.082 6.76991 109.087 6.76921C109.093 6.76851 109.098 6.76678 109.103 6.76413L109.151 6.73709C109.271 6.66932 109.36 6.56048 109.402 6.43199C109.443 6.3035 109.433 6.16467 109.374 6.04283L110.589 5.54027C110.714 5.48903 110.825 5.41125 110.914 5.3127C111.003 5.21416 111.068 5.09739 111.105 4.97109L111.258 4.43977C111.26 4.4346 111.26 4.42918 111.26 4.42385C111.259 4.41852 111.257 4.41338 111.254 4.40873C111.252 4.40408 111.248 4.40002 111.243 4.39679C111.239 4.39355 111.234 4.3912 111.228 4.38989ZM108.152 5.09772L108.164 5.09089C108.267 5.03338 108.388 5.01539 108.504 5.04051C108.62 5.06562 108.722 5.132 108.79 5.22646L108.4 5.51178L108.152 5.09772ZM108.184 5.89816C108.208 5.88467 108.234 5.87591 108.262 5.87241C108.321 5.90458 108.371 5.95176 108.405 6.00898C108.44 6.06621 108.457 6.13133 108.457 6.19749C108.438 6.2214 108.414 6.24097 108.386 6.25479C108.358 6.2686 108.328 6.27632 108.297 6.27738C108.266 6.27844 108.235 6.27282 108.206 6.26093C108.178 6.24903 108.152 6.23115 108.132 6.20859C108.111 6.18602 108.096 6.15932 108.088 6.13041C108.079 6.10151 108.077 6.07111 108.082 6.04142C108.087 6.01173 108.099 5.98347 108.116 5.9587C108.134 5.93392 108.157 5.91326 108.184 5.89816ZM107.865 6.39925L107.555 6.36596L107.712 6.14073C107.74 6.04713 107.845 5.98472 107.93 5.93298C108.016 5.88123 108.039 5.81444 108.138 5.83096C108.072 5.86938 108.025 5.93134 108.006 6.00346C107.986 6.07559 107.997 6.15211 108.036 6.21652C108.075 6.28092 108.138 6.32806 108.212 6.34776C108.286 6.36746 108.365 6.35814 108.433 6.32182C108.398 6.41329 108.275 6.36496 108.186 6.41095C108.098 6.45693 107.963 6.42219 107.865 6.39925ZM108.67 6.24662L108.324 5.66845L108.501 5.53842L108.875 6.16189L108.67 6.24662ZM109.109 6.66751L109.097 6.67436L108.849 6.26033L109.298 6.07445C109.349 6.1782 109.358 6.29678 109.323 6.40665C109.288 6.51652 109.212 6.60964 109.109 6.66751ZM111.025 4.94938C110.992 5.06125 110.935 5.16491 110.857 5.25302C110.779 5.34113 110.682 5.41152 110.573 5.45921C110.492 5.2096 110.374 4.97316 110.221 4.7579C110.217 4.7534 110.214 4.74953 110.209 4.74653C110.204 4.74352 110.199 4.74144 110.194 4.7404C110.188 4.73936 110.183 4.73938 110.177 4.74047C110.172 4.74156 110.167 4.74369 110.162 4.74674C110.158 4.74978 110.154 4.75369 110.151 4.75821C110.148 4.76274 110.146 4.7678 110.145 4.77309C110.144 4.77838 110.144 4.7838 110.145 4.78903C110.146 4.79426 110.149 4.79919 110.152 4.80353C110.302 5.01448 110.418 5.2464 110.496 5.49126L108.952 6.13003L108.568 5.48952L109.907 4.50915C109.957 4.56071 110.005 4.61454 110.05 4.66986C110.057 4.67816 110.067 4.68349 110.078 4.6847C110.089 4.6859 110.1 4.68287 110.108 4.67628C110.117 4.66968 110.123 4.66005 110.124 4.6495C110.125 4.63894 110.122 4.62832 110.115 4.61994C110.071 4.5652 110.023 4.51183 109.974 4.4605C110.071 4.39221 110.182 4.34543 110.3 4.32348C110.418 4.30153 110.539 4.30496 110.655 4.3335L111.167 4.45784L111.025 4.94938Z" fill="black"/>
<path d="M109.877 4.91479C109.855 4.93016 109.836 4.94956 109.822 4.97191C109.808 4.99425 109.798 5.01909 109.794 5.045C109.79 5.07092 109.791 5.09741 109.797 5.12295C109.803 5.1485 109.814 5.1726 109.83 5.19389C109.862 5.23688 109.91 5.26578 109.963 5.27423C109.99 5.27841 110.017 5.27745 110.043 5.2714C110.069 5.26535 110.094 5.25433 110.116 5.23896C110.16 5.20793 110.19 5.16109 110.199 5.10875C110.208 5.05641 110.195 5.00285 110.163 4.95986C110.131 4.91688 110.083 4.88798 110.03 4.87953C109.976 4.87108 109.921 4.88377 109.877 4.9148L109.877 4.91479ZM110.068 5.17324C110.048 5.18701 110.025 5.19481 110.001 5.19566C109.976 5.19652 109.953 5.19038 109.932 5.17804C109.912 5.16569 109.895 5.14769 109.885 5.1263C109.875 5.10492 109.872 5.08112 109.876 5.0579C109.88 5.03469 109.891 5.01311 109.907 4.99589C109.924 4.97867 109.945 4.96659 109.969 4.96117C109.992 4.95575 110.017 4.95724 110.039 4.96545C110.062 4.97366 110.081 4.98822 110.095 5.00729C110.114 5.03287 110.122 5.0647 110.117 5.0958C110.111 5.1269 110.094 5.15475 110.068 5.17324Z" fill="black"/>
<path d="M109.586 5.0748C109.553 5.0696 109.519 5.07246 109.487 5.08315C109.455 5.09383 109.426 5.11201 109.403 5.13607C109.38 5.16013 109.364 5.18933 109.355 5.22109C109.346 5.25284 109.346 5.28618 109.353 5.31814C109.361 5.3501 109.377 5.3797 109.399 5.40433C109.421 5.42895 109.449 5.44784 109.481 5.45932C109.512 5.4708 109.546 5.47452 109.58 5.47014C109.613 5.46577 109.645 5.45344 109.672 5.43424C109.705 5.41111 109.731 5.37898 109.745 5.34193C109.759 5.30488 109.762 5.26456 109.753 5.22608C109.743 5.1876 109.722 5.15269 109.693 5.12577C109.663 5.09884 109.626 5.08111 109.586 5.07482L109.586 5.0748ZM109.624 5.36852C109.604 5.38229 109.581 5.39009 109.557 5.39095C109.533 5.3918 109.509 5.38567 109.488 5.37333C109.468 5.36098 109.452 5.34298 109.442 5.32159C109.432 5.30021 109.428 5.2764 109.432 5.25319C109.436 5.22997 109.447 5.20839 109.464 5.19118C109.48 5.17396 109.501 5.16188 109.525 5.15646C109.548 5.15104 109.573 5.15253 109.596 5.16074C109.618 5.16895 109.638 5.18352 109.652 5.20258C109.671 5.22817 109.678 5.25999 109.673 5.29109C109.668 5.32219 109.65 5.35003 109.624 5.36852Z" fill="black"/>
<path d="M108.993 5.34516C108.949 5.37632 108.92 5.42309 108.911 5.47525C108.902 5.5274 108.915 5.58071 108.947 5.62353C108.979 5.66635 109.026 5.69519 109.08 5.70377C109.133 5.71234 109.188 5.69994 109.232 5.66929C109.254 5.65399 109.273 5.63461 109.287 5.61224C109.302 5.58988 109.311 5.56499 109.316 5.53899C109.32 5.51299 109.319 5.4864 109.313 5.46076C109.307 5.43511 109.296 5.41091 109.28 5.38955C109.264 5.36818 109.244 5.35008 109.221 5.33628C109.198 5.32248 109.173 5.31325 109.146 5.30912C109.119 5.305 109.092 5.30606 109.066 5.31224C109.04 5.31843 109.015 5.32962 108.993 5.34516ZM109.184 5.60361C109.161 5.6197 109.133 5.62756 109.105 5.62585C109.077 5.62414 109.05 5.61297 109.029 5.59424C109.009 5.57551 108.995 5.55038 108.992 5.52313C108.988 5.49588 108.994 5.4682 109.009 5.44481C109.024 5.42141 109.047 5.40374 109.073 5.39482C109.1 5.38589 109.129 5.38626 109.156 5.39586C109.182 5.40546 109.204 5.42369 109.218 5.44746C109.232 5.47122 109.238 5.49904 109.233 5.52619C109.228 5.5573 109.21 5.58514 109.184 5.6036L109.184 5.60361Z" fill="black"/>
<path d="M110.542 4.36584C110.408 4.34979 110.272 4.37219 110.151 4.43031C110.146 4.43264 110.142 4.4359 110.138 4.43989C110.134 4.44389 110.132 4.44855 110.13 4.45361C110.128 4.45866 110.127 4.46401 110.128 4.46935C110.128 4.47468 110.129 4.47989 110.132 4.48469C110.134 4.48948 110.138 4.49376 110.142 4.49728C110.146 4.5008 110.151 4.50349 110.156 4.50519C110.161 4.50689 110.167 4.50757 110.172 4.50719C110.177 4.50682 110.183 4.50539 110.188 4.50299C110.295 4.45183 110.414 4.43213 110.532 4.44629C110.538 4.44696 110.543 4.44658 110.548 4.44517C110.554 4.44375 110.559 4.44133 110.563 4.43804C110.567 4.43476 110.571 4.43067 110.574 4.42602C110.576 4.42137 110.578 4.41624 110.579 4.41094C110.579 4.40564 110.579 4.40026 110.578 4.39512C110.576 4.38998 110.574 4.38517 110.57 4.38098C110.567 4.37679 110.563 4.37329 110.558 4.3707C110.553 4.3681 110.548 4.36645 110.542 4.36584Z" fill="black"/>
<path d="M110.682 4.47354L110.682 4.47363L110.735 4.4813C110.746 4.48287 110.757 4.48017 110.766 4.4738C110.775 4.46742 110.781 4.45789 110.783 4.44731C110.784 4.43672 110.781 4.42594 110.775 4.41734C110.768 4.40874 110.759 4.40303 110.748 4.40146L110.695 4.39379C110.689 4.39297 110.684 4.3932 110.679 4.39445C110.673 4.39571 110.668 4.39796 110.664 4.40109C110.66 4.40422 110.656 4.40816 110.653 4.41268C110.65 4.41721 110.648 4.42224 110.647 4.42747C110.647 4.43271 110.647 4.43805 110.648 4.4432C110.649 4.44835 110.652 4.45321 110.655 4.45748C110.658 4.46176 110.662 4.46538 110.667 4.46814C110.671 4.47089 110.677 4.47273 110.682 4.47354Z" fill="black"/>
<path d="M102.021 12.2429C99.8872 11.1198 104.448 7.87521 106.995 6.32422L107.404 7.01544C101.371 10.2725 101.319 11.8017 102.021 12.2429Z" fill="#FFB800"/>
</svg>
