<svg width="21" height="22" viewBox="0 0 21 22" fill="none" xmlns="http://www.w3.org/2000/svg">
<path fill-rule="evenodd" clip-rule="evenodd" d="M2.44188 11C2.44188 6.30557 6.15896 2.5 10.7442 2.5C15.3294 2.5 19.0465 6.30557 19.0465 11C19.0465 15.6944 15.3294 19.5 10.7442 19.5C9.11088 19.5 7.59054 19.0182 6.3078 18.1861C6.06907 18.0313 5.77654 17.9899 5.50575 18.0726L2.69356 18.9319L3.75239 16.3953C3.87754 16.0955 3.85208 15.7521 3.68415 15.4751C2.89673 14.176 2.44188 12.6439 2.44188 11ZM10.7442 0.5C5.08008 0.5 0.488393 5.201 0.488393 11C0.488393 12.8381 0.95053 14.5683 1.76268 16.0727L0.0786 20.107C-0.0702773 20.4637 -0.00428652 20.8763 0.247919 21.1657C0.500124 21.4552 0.893058 21.5692 1.25608 21.4582L5.65087 20.1155C7.15216 20.9965 8.89199 21.5 10.7442 21.5C16.4083 21.5 21 16.799 21 11C21 5.201 16.4083 0.5 10.7442 0.5ZM12.9834 13.1824L11.6997 14.1081C11.0985 13.7575 10.4339 13.2681 9.76715 12.5855C9.07405 11.8759 8.56021 11.1433 8.18133 10.4713L8.99708 9.76238C9.34715 9.45818 9.44297 8.94531 9.2273 8.53026L8.18789 6.53027C8.04792 6.26096 7.79555 6.07179 7.50252 6.01653C7.20948 5.96128 6.90784 6.04599 6.68334 6.24658L6.37517 6.52194C5.63409 7.18413 5.19579 8.27228 5.55905 9.37408C5.93566 10.5163 6.73937 12.314 8.38586 13.9997C10.1573 15.8133 11.9566 16.5275 13.0089 16.8049C13.8567 17.0283 14.659 16.7288 15.2243 16.2572L15.8021 15.7752C16.0492 15.5691 16.1825 15.2524 16.1593 14.9269C16.1359 14.6014 15.9589 14.308 15.685 14.1409L14.0458 13.1409C13.7147 12.939 13.2986 12.9552 12.9834 13.1824Z" fill="white"/>
</svg>
