<svg width="127" height="127" viewBox="0 0 127 127" fill="none" xmlns="http://www.w3.org/2000/svg">
<path d="M63.5 25.7402C42.8908 25.7402 26.1371 42.494 26.1087 63.1031C26.1087 70.1618 28.0931 77.0504 31.835 82.9752L32.7138 84.3926L28.9435 98.1699L43.0893 94.4563L44.45 95.2783C50.1763 98.6801 56.7531 100.494 63.4716 100.494H63.5C84.0808 100.494 101.288 83.7406 101.288 63.1315C101.288 53.1529 96.9792 43.7696 89.9205 36.7109C82.8335 29.6239 73.4786 25.7402 63.5 25.7402ZM85.4699 79.1482C84.5344 81.7846 80.0554 84.1658 77.9009 84.4777C74.329 85.0163 71.5509 84.7328 64.4355 81.6712C53.1812 76.7953 45.8107 65.456 45.2438 64.719C44.6768 63.9819 40.6513 58.6241 40.6513 53.0962C40.6513 47.5683 43.5429 44.8469 44.5917 43.7129C45.6123 42.579 46.8312 42.2955 47.5966 42.2955C48.3337 42.2955 49.0991 42.2955 49.7511 42.3239C50.4315 42.3522 51.367 42.0688 52.2741 44.2516C53.2096 46.4911 55.4491 52.019 55.7326 52.5859C56.0161 53.1529 56.2145 53.8049 55.8176 54.542C53.6632 58.8509 51.367 58.6808 52.5292 60.6652C56.8665 68.1208 61.2038 70.7004 67.8089 74.0172C68.9429 74.5842 69.5949 74.4991 70.2469 73.7337C70.8989 72.9967 73.0533 70.4453 73.7904 69.3397C74.5274 68.2058 75.2929 68.4042 76.3134 68.7728C77.3339 69.1413 82.8618 71.8627 83.9958 72.4297C85.1297 72.9966 85.8667 73.2801 86.1502 73.7337C86.4054 74.2723 86.4054 76.5402 85.4699 79.1482V79.1482ZM113.393 0H13.6071C6.09487 0 0 6.09487 0 13.6071V113.393C0 120.905 6.09487 127 13.6071 127H113.393C120.905 127 127 120.905 127 113.393V13.6071C127 6.09487 120.905 0 113.393 0ZM63.4716 108.063C55.931 108.063 48.5321 106.164 41.9837 102.592L18.1429 108.857L24.5212 85.5549C20.5808 78.7513 18.5114 71.0123 18.5114 63.0748C18.5397 38.2984 38.6953 18.1429 63.4716 18.1429C75.4913 18.1429 86.7739 22.8203 95.2783 31.3248C103.754 39.8292 108.857 51.1118 108.857 63.1315C108.857 87.9078 88.248 108.063 63.4716 108.063Z" fill="black"/>
</svg>
