<svg width="127" height="127" viewBox="0 0 127 127" fill="none" xmlns="http://www.w3.org/2000/svg">
<path d="M113.393 0H13.6071C9.9983 0 6.53727 1.43361 3.98544 3.98544C1.43361 6.53727 0 9.9983 0 13.6071V113.393C0 117.002 1.43361 120.463 3.98544 123.015C6.53727 125.566 9.9983 127 13.6071 127H52.5151V83.8228H34.6557V63.5H52.5151V48.0105C52.5151 30.3921 63.0039 20.6602 79.0688 20.6602C86.7625 20.6602 94.8078 22.0322 94.8078 22.0322V39.3246H85.9433C77.2092 39.3246 74.4849 44.7448 74.4849 50.3039V63.5H93.9828L90.8645 83.8228H74.4849V127H113.393C117.002 127 120.463 125.566 123.015 123.015C125.566 120.463 127 117.002 127 113.393V13.6071C127 9.9983 125.566 6.53727 123.015 3.98544C120.463 1.43361 117.002 0 113.393 0Z" fill="white"/>
</svg>
